
<svg display="none">
	<defs>
		<g id="img-back">
			<path xmlns="http://www.w3.org/2000/svg" d="M155.79 179.5L309.08 91 155.79 2.5" class="8ddd8af2-6a8b-4876-b49e-f6942da49e23"/><path xmlns="http://www.w3.org/2000/svg" d="M155.79 2.5L2.5 90.98 155.79 179.5" class="093e6c99-e94a-4b49-bc6f-6b8edc344b21"/><path xmlns="http://www.w3.org/2000/svg" fill="none" stroke="#231f20" stroke-dasharray="12" stroke-linejoin="round" stroke-width="3" d="M155.79 2.5L155.79 179.5"/><path xmlns="http://www.w3.org/2000/svg" d="M155.79 179.5L2.5 91 2.5 268" class="093e6c99-e94a-4b49-bc6f-6b8edc344b21"/><path xmlns="http://www.w3.org/2000/svg" d="M309.07 268L309.08 91 155.79 179.5" class="8ddd8af2-6a8b-4876-b49e-f6942da49e23"/><path xmlns="http://www.w3.org/2000/svg" d="M309.08 268.01L155.79 179.49" class="1de17d08-44e2-4c12-9163-0cd4576a0e17"/><path xmlns="http://www.w3.org/2000/svg" d="M155.79 179.5L2.5 268" class="1de17d08-44e2-4c12-9163-0cd4576a0e17"/><path xmlns="http://www.w3.org/2000/svg" d="M155.79 179.5L309.08 268" class="0fd394ce-47b1-47c0-9f78-868b03840108"/><path xmlns="http://www.w3.org/2000/svg" d="M155.79 179.49L155.79 356.49 309.08 268.01" class="093e6c99-e94a-4b49-bc6f-6b8edc344b21"/><path xmlns="http://www.w3.org/2000/svg" d="M2.5 268.01L155.79 356.51 155.79 179.51" class="093e6c99-e94a-4b49-bc6f-6b8edc344b21"/>
		</g>
		<g id="img-bot">
			<path xmlns="http://www.w3.org/2000/svg" fill="none" stroke="#231f20" stroke-linecap="round" stroke-linejoin="round" stroke-width="5" d="M155.79 179.5L309.08 91 155.79 2.5"/><path xmlns="http://www.w3.org/2000/svg" fill="none" stroke="#231f20" stroke-linecap="round" stroke-linejoin="round" stroke-width="5" d="M155.79 2.5L2.5 90.98 155.79 179.5"/><path xmlns="http://www.w3.org/2000/svg" fill="none" stroke="#231f20" stroke-dasharray="12" stroke-linejoin="round" stroke-width="3" d="M155.79 2.5L155.79 179.5"/><path xmlns="http://www.w3.org/2000/svg" fill="none" stroke="#231f20" stroke-linecap="round" stroke-linejoin="round" stroke-width="5" d="M155.79 179.5L2.5 91 2.5 268"/><path xmlns="http://www.w3.org/2000/svg" fill="#a7a9ac" stroke="#231f20" stroke-linecap="round" stroke-linejoin="round" stroke-width="5" d="M155.79 179.49L155.79 356.49 309.08 268.01"/><path xmlns="http://www.w3.org/2000/svg" fill="none" stroke="#231f20" stroke-linecap="round" stroke-linejoin="round" stroke-width="5" d="M309.07 268L309.08 91 155.79 179.5"/><path xmlns="http://www.w3.org/2000/svg" fill="#a7a9ac" stroke="#231f20" stroke-linecap="round" stroke-linejoin="round" stroke-width="5" d="M2.5 268.01L155.79 356.51 155.79 179.51"/><path xmlns="http://www.w3.org/2000/svg" d="M309.08 268.01L155.79 179.49" class="265ef902-b070-43ab-8c4e-ae861fd6ac5c"/><path xmlns="http://www.w3.org/2000/svg" d="M155.79 179.5L2.5 268" class="265ef902-b070-43ab-8c4e-ae861fd6ac5c"/><path xmlns="http://www.w3.org/2000/svg" d="M155.79 179.5L309.08 268" class="766cef85-9fd3-4e5c-849a-6f9793c6dc2c"/>
		</g>
		<g id="img-front">
			<path xmlns="http://www.w3.org/2000/svg" fill="none" stroke="#231f20" stroke-linecap="round" stroke-linejoin="round" stroke-width="5" d="M155.79 179.5L309.08 91 155.79 2.5"/><path xmlns="http://www.w3.org/2000/svg" fill="none" stroke="#231f20" stroke-linecap="round" stroke-linejoin="round" stroke-width="5" d="M155.79 2.5L2.5 90.98 155.79 179.5"/><path xmlns="http://www.w3.org/2000/svg" d="M155.79 2.5L155.79 179.5" class="1dbc85ac-1254-4d19-90fc-b7117896cdfd"/><path xmlns="http://www.w3.org/2000/svg" fill="none" stroke="#231f20" stroke-linecap="round" stroke-linejoin="round" stroke-width="5" d="M155.79 179.49L155.79 356.49 309.08 268.01"/><path xmlns="http://www.w3.org/2000/svg" fill="none" stroke="#231f20" stroke-linecap="round" stroke-linejoin="round" stroke-width="5" d="M309.07 268L309.08 91 155.79 179.5"/><path xmlns="http://www.w3.org/2000/svg" d="M2.5 268.01L155.79 356.51 155.79 179.51 155.79 179.5 2.5 91 2.5 268" class="0a08b861-bedf-498c-aa73-c501266c16e2"/><path xmlns="http://www.w3.org/2000/svg" d="M309.08 268.01L155.79 179.49" class="3fad3b6d-e6b2-474b-a0b0-01520f969b47"/>
		</g>
		<g id="img-left">
			<path xmlns="http://www.w3.org/2000/svg" d="M155.79 2.5L2.5 90.98 155.79 179.5" class="72dcb246-2578-42af-a1c2-cc86a79cc13e"/><path xmlns="http://www.w3.org/2000/svg" d="M155.79 2.5L155.79 179.5" class="2d1748d5-390d-4194-99e9-71d3f143f7e4"/><path xmlns="http://www.w3.org/2000/svg" d="M155.79 179.5L2.5 91 2.5 268" class="72dcb246-2578-42af-a1c2-cc86a79cc13e"/><path xmlns="http://www.w3.org/2000/svg" fill="#bcbec0" stroke="#231f20" stroke-dasharray="12" stroke-linejoin="round" stroke-width="3" d="M309.08 268.01L155.79 179.49"/><path xmlns="http://www.w3.org/2000/svg" fill="#bcbec0" stroke="#231f20" stroke-dasharray="12" stroke-linejoin="round" stroke-width="3" d="M155.79 179.5L2.5 268"/><path xmlns="http://www.w3.org/2000/svg" d="M155.79 179.5L309.08 268" class="213d60ad-96b2-465b-ad4e-a76b69ed0391"/><path xmlns="http://www.w3.org/2000/svg" d="M309.07 268L309.08 91 155.79 179.5" class="09de92be-ac1b-4dbc-b76e-591f5b71b9ca"/><path xmlns="http://www.w3.org/2000/svg" d="M155.79 179.49L155.79 356.49 309.08 268.01" class="09de92be-ac1b-4dbc-b76e-591f5b71b9ca"/><path xmlns="http://www.w3.org/2000/svg" d="M155.79 179.5L309.08 91 155.79 2.5" class="09de92be-ac1b-4dbc-b76e-591f5b71b9ca"/><path xmlns="http://www.w3.org/2000/svg" d="M2.5 268.01L155.79 356.51 155.79 179.51" class="09de92be-ac1b-4dbc-b76e-591f5b71b9ca"/>
		</g>
		<g id="img-right">
			<path xmlns="http://www.w3.org/2000/svg" d="M155.79 179.5L309.08 91 155.79 2.5" class="7e98c43a-4976-4e66-a75c-fd668510e8dc"/><path xmlns="http://www.w3.org/2000/svg" d="M155.79 2.5L2.5 90.98 155.79 179.5" class="7e98c43a-4976-4e66-a75c-fd668510e8dc"/><path xmlns="http://www.w3.org/2000/svg" fill="none" stroke="#231f20" stroke-dasharray="12" stroke-linejoin="round" stroke-width="3" d="M155.79 2.5L155.79 179.5"/><path xmlns="http://www.w3.org/2000/svg" d="M155.79 179.5L2.5 91 2.5 268" class="7e98c43a-4976-4e66-a75c-fd668510e8dc"/><path xmlns="http://www.w3.org/2000/svg" d="M155.79 179.5L309.08 91 309.07 268 309.08 268.01 155.79 356.49 155.79 179.49" class="999b67a7-a40b-4622-af64-12364b7b9f17"/><path xmlns="http://www.w3.org/2000/svg" d="M2.5 268.01L155.79 356.51 155.79 179.51" class="7e98c43a-4976-4e66-a75c-fd668510e8dc"/><path xmlns="http://www.w3.org/2000/svg" d="M155.79 179.5L2.5 268" class="1103a244-2e92-4e18-a3cb-c0e780bd2eef"/>
		</g>
		<g id="img-top">
			<path xmlns="http://www.w3.org/2000/svg" fill="#a7a9ac" stroke="#231f20" stroke-linecap="round" stroke-linejoin="round" stroke-width="5" d="M155.79 179.5L2.5 90.98 155.79 2.5 309.08 91 155.79 179.5z"/><path xmlns="http://www.w3.org/2000/svg" fill="none" stroke="#231f20" stroke-linecap="round" stroke-linejoin="round" stroke-width="5" d="M155.79 179.5L2.5 91 2.5 268"/><path xmlns="http://www.w3.org/2000/svg" fill="none" stroke="#231f20" stroke-linecap="round" stroke-linejoin="round" stroke-width="5" d="M155.79 179.49L155.79 356.49 309.08 268.01"/><path xmlns="http://www.w3.org/2000/svg" fill="none" stroke="#231f20" stroke-linecap="round" stroke-linejoin="round" stroke-width="5" d="M309.07 268L309.08 91 155.79 179.5"/><path xmlns="http://www.w3.org/2000/svg" fill="none" stroke="#231f20" stroke-linecap="round" stroke-linejoin="round" stroke-width="5" d="M2.5 268.01L155.79 356.51 155.79 179.51"/><path xmlns="http://www.w3.org/2000/svg" d="M309.08 268.01L155.79 179.49" class="98ba540f-6784-4a10-9d10-02e2e5c57b39"/><path xmlns="http://www.w3.org/2000/svg" d="M155.79 179.5L2.5 268" class="98ba540f-6784-4a10-9d10-02e2e5c57b39"/>
		</g>
	</defs>
</svg>
